<svg width="41" height="40" viewBox="0 0 41 40" fill="none" xmlns="http://www.w3.org/2000/svg">
<path d="M17.1657 20L10.7422 29.6715" stroke="#E53935" stroke-width="1.5" stroke-linecap="round" stroke-linejoin="round"/>
<path fill-rule="evenodd" clip-rule="evenodd" d="M15.5 5H25.5V8.33333C25.5 9.25381 24.7538 10 23.8333 10H17.1667C16.2462 10 15.5 9.25381 15.5 8.33333V5Z" stroke="#E53935" stroke-width="1.5" stroke-linecap="round" stroke-linejoin="round"/>
<path d="M5.5 25.1797V32.126C5.49998 32.8881 5.80274 33.6191 6.34166 34.158C6.88058 34.6969 7.61153 34.9997 8.37368 34.9997H16.9567" stroke="#E53935" stroke-width="1.5" stroke-linecap="round" stroke-linejoin="round"/>
<path d="M5.5 10V8.33333C5.5 6.49238 6.99238 5 8.83333 5H32.1667C34.0076 5 35.5 6.49238 35.5 8.33333V31.6667C35.5 33.5076 34.0076 35 32.1667 35H28.1522" stroke="#E53935" stroke-width="1.5" stroke-linecap="round" stroke-linejoin="round"/>
<path d="M5.5 25.18L17.4967 35.4629C18.403 36.2397 19.5571 36.6667 20.7507 36.6667H26.2318C26.9866 36.6667 27.671 36.2237 27.9802 35.5352C28.2894 34.8467 28.1658 34.0408 27.6643 33.4767L23.8333 29.1667V27.5H27.2714C28.5943 27.5 29.6667 26.4276 29.6667 25.1048V25.1048C29.6667 24.0142 28.9301 23.0613 27.8747 22.7867L17.1667 20L5.5 10" stroke="#E53935" stroke-width="1.5" stroke-linecap="round" stroke-linejoin="round"/>
</svg>
