<svg width="35" height="34" viewBox="0 0 35 34" fill="none" xmlns="http://www.w3.org/2000/svg">
<path fill-rule="evenodd" clip-rule="evenodd" d="M12.8737 22.8268H10.5703C10.0553 22.8268 9.63867 22.4102 9.63867 21.8952V14.5918C9.63867 14.0768 10.0553 13.6602 10.5703 13.6602H12.8737C13.3887 13.6602 13.8053 14.0768 13.8053 14.6618V21.9652C13.8053 22.4085 13.3887 22.8268 12.8737 22.8268Z" stroke="#E53935" stroke-width="1.5" stroke-linecap="round" stroke-linejoin="round"/>
<path d="M13.8064 20.8518L15.6097 22.3468C15.983 22.6568 16.4547 22.8268 16.9397 22.8268H22.9114C23.6597 22.8268 24.318 22.3301 24.5247 21.6101L25.7447 17.3401C25.9297 16.6951 25.8214 16.0001 25.4497 15.4418C25.0297 14.8101 24.3247 14.4318 23.5697 14.4318H22.5364H20.7947L20.803 11.5951C20.8097 9.48677 18.0414 8.70343 16.9414 10.5018L13.8047 15.6368" stroke="#E53935" stroke-width="1.5" stroke-linecap="round" stroke-linejoin="round"/>
<path fill-rule="evenodd" clip-rule="evenodd" d="M18.5112 2.45208L20.9279 1.27042C22.0429 0.725418 23.3912 1.16208 23.9729 2.26042L25.2345 4.63708C25.5679 5.26375 26.1712 5.70209 26.8712 5.82542L29.5212 6.29042C30.7445 6.50542 31.5762 7.65042 31.4029 8.88042L31.0262 11.5438C30.9262 12.2471 31.1579 12.9571 31.6512 13.4671L33.5212 15.4004C34.3845 16.2921 34.3845 17.7088 33.5212 18.6021L31.6512 20.5354C31.1579 21.0454 30.9262 21.7554 31.0262 22.4588L31.4029 25.1221C31.5762 26.3521 30.7445 27.4971 29.5212 27.7121L26.8712 28.1771C26.1712 28.3004 25.5679 28.7388 25.2345 29.3654L23.9729 31.7421C23.3912 32.8387 22.0445 33.2771 20.9279 32.7321L18.5112 31.5504C17.8729 31.2388 17.1279 31.2388 16.4895 31.5504L14.0729 32.7321C12.9579 33.2771 11.6095 32.8404 11.0279 31.7421L9.7662 29.3637C9.43286 28.7371 8.82953 28.2988 8.12953 28.1754L5.47953 27.7104C4.2562 27.4954 3.42453 26.3504 3.59786 25.1204L3.97453 22.4571C4.07453 21.7538 3.84286 21.0438 3.34953 20.5338L1.47953 18.6004C0.616198 17.7088 0.616198 16.2921 1.47953 15.3988L3.34953 13.4654C3.84286 12.9554 4.07453 12.2454 3.97453 11.5421L3.59953 8.87875C3.42453 7.65042 4.25786 6.50375 5.4812 6.29042L8.1312 5.82542C8.82953 5.70209 9.43286 5.26375 9.7662 4.63708L11.0279 2.26042C11.6095 1.16375 12.9562 0.725418 14.0729 1.27042L16.4895 2.45208C17.1262 2.76375 17.8729 2.76375 18.5112 2.45208Z" stroke="#E53935" stroke-width="1.5" stroke-linecap="round" stroke-linejoin="round"/>
</svg>
