<svg width="33" height="32" viewBox="0 0 33 32" fill="none" xmlns="http://www.w3.org/2000/svg">
<path d="M24.8374 31.0049C21.1542 31.0049 18.168 28.0187 18.168 24.3355C18.168 20.6523 21.1542 17.666 24.8374 17.666C28.5223 17.666 31.5069 20.6523 31.5069 24.3355C31.5069 28.0187 28.5223 31.0049 24.8374 31.0049" stroke="#E53935" stroke-width="1.5" stroke-linecap="round" stroke-linejoin="round"/>
<path d="M27.2462 18.115L28.0649 15.1121C28.5785 13.2263 27.1595 11.3672 25.2054 11.3672H4.46008C2.50593 11.3672 1.08534 13.2263 1.60055 15.1121L4.43007 25.4864C4.78188 26.7753 5.95237 27.6706 7.28959 27.6706H19.0612" stroke="#E53935" stroke-width="1.5" stroke-linecap="round" stroke-linejoin="round"/>
<path d="M25.2076 11.3671H25.206L17.0526 2.0099C15.8704 0.652671 13.7779 0.652671 12.599 2.01157C9.85456 5.17622 6.78162 8.74604 4.46065 11.3671H4.45898H4.46065" stroke="#E53935" stroke-width="1.5" stroke-linecap="round" stroke-linejoin="round"/>
<path d="M27.2608 22.8203L24.2295 25.8516L22.4121 24.0325" stroke="#E53935" stroke-width="1.5" stroke-linecap="round" stroke-linejoin="round"/>
</svg>
