<svg width="33" height="33" viewBox="0 0 33 33" fill="none" xmlns="http://www.w3.org/2000/svg">
<circle cx="16.5" cy="16.5" r="3" stroke="#878787" stroke-width="1.5" stroke-linecap="round" stroke-linejoin="round"/>
<path fill-rule="evenodd" clip-rule="evenodd" d="M11.5003 11.1667H9.83366C8.3609 11.1667 7.16699 12.3606 7.16699 13.8333V20.5C7.16699 21.9728 8.3609 23.1667 9.83366 23.1667H23.167C24.6398 23.1667 25.8337 21.9728 25.8337 20.5V13.8333C25.8337 12.3606 24.6398 11.1667 23.167 11.1667H21.5003C21.2905 11.1667 21.0929 11.0679 20.967 10.9L19.967 9.56667C19.4634 8.89518 18.673 8.5 17.8337 8.5H15.167C14.3276 8.5 13.5373 8.89518 13.0337 9.56667L12.0337 10.9C11.9078 11.0679 11.7102 11.1667 11.5003 11.1667Z" stroke="#878787" stroke-width="1.5" stroke-linecap="round" stroke-linejoin="round"/>
<path d="M7.16699 28.5H5.83366C4.3609 28.5 3.16699 27.3061 3.16699 25.8333V24.5" stroke="#878787" stroke-width="1.5" stroke-linecap="round" stroke-linejoin="round"/>
<path d="M25.833 4.5H27.1663C28.6391 4.5 29.833 5.69391 29.833 7.16667V8.5" stroke="#878787" stroke-width="1.5" stroke-linecap="round" stroke-linejoin="round"/>
<path d="M25.833 28.5H27.1663C28.6391 28.5 29.833 27.3061 29.833 25.8333V24.5" stroke="#878787" stroke-width="1.5" stroke-linecap="round" stroke-linejoin="round"/>
<path d="M7.16699 4.5H5.83366C4.3609 4.5 3.16699 5.69391 3.16699 7.16667V8.5" stroke="#878787" stroke-width="1.5" stroke-linecap="round" stroke-linejoin="round"/>
</svg>
