<svg width="20" height="20" viewBox="0 0 20 20" fill="none" xmlns="http://www.w3.org/2000/svg">
<path d="M16 3H19" stroke="#878787" stroke-width="1.5" stroke-linecap="round" stroke-linejoin="round"/>
<path d="M1 3H12" stroke="#878787" stroke-width="1.5" stroke-linecap="round" stroke-linejoin="round"/>
<path d="M8 10H19" stroke="#878787" stroke-width="1.5" stroke-linecap="round" stroke-linejoin="round"/>
<path d="M1 10H4" stroke="#878787" stroke-width="1.5" stroke-linecap="round" stroke-linejoin="round"/>
<path d="M16 17H19" stroke="#878787" stroke-width="1.5" stroke-linecap="round" stroke-linejoin="round"/>
<path d="M1 17H12" stroke="#878787" stroke-width="1.5" stroke-linecap="round" stroke-linejoin="round"/>
<path d="M15.4142 1.58579C16.1953 2.36684 16.1953 3.63317 15.4142 4.41422C14.6332 5.19527 13.3668 5.19527 12.5858 4.41422C11.8047 3.63317 11.8047 2.36684 12.5858 1.58579C13.3668 0.804738 14.6332 0.804738 15.4142 1.58579" stroke="#878787" stroke-width="1.5" stroke-linecap="round" stroke-linejoin="round"/>
<path d="M7.41422 8.58579C8.19527 9.36684 8.19527 10.6332 7.41422 11.4142C6.63317 12.1953 5.36684 12.1953 4.58579 11.4142C3.80474 10.6332 3.80474 9.36684 4.58579 8.58579C5.36684 7.80474 6.63317 7.80474 7.41422 8.58579" stroke="#878787" stroke-width="1.5" stroke-linecap="round" stroke-linejoin="round"/>
<path d="M15.4142 15.5858C16.1953 16.3668 16.1953 17.6332 15.4142 18.4142C14.6332 19.1953 13.3668 19.1953 12.5858 18.4142C11.8047 17.6332 11.8047 16.3668 12.5858 15.5858C13.3668 14.8047 14.6332 14.8047 15.4142 15.5858" stroke="#878787" stroke-width="1.5" stroke-linecap="round" stroke-linejoin="round"/>
</svg>
