<svg width="24" height="24" viewBox="0 0 24 24" fill="none" xmlns="http://www.w3.org/2000/svg">
<path d="M2 19C2 16.8 3.8 15 6 15H10C12.2 15 14 16.8 14 19" stroke="#878787" stroke-width="1.5" stroke-linecap="round" stroke-linejoin="round"/>
<path d="M10.4968 6.00015C11.8968 7.40015 11.8968 9.60015 10.4968 10.9002C9.09675 12.2002 6.89675 12.3002 5.59675 10.9002C4.29675 9.50015 4.19675 7.40015 5.49675 6.00015C6.79675 4.60015 9.09675 4.70015 10.4968 6.00015" stroke="#878787" stroke-width="1.5" stroke-linecap="round" stroke-linejoin="round"/>
<path d="M16 14H19C20.7 14 22 15.3 22 17" stroke="#878787" stroke-width="1.5" stroke-linecap="round" stroke-linejoin="round"/>
<path d="M19.2989 6.70039C20.2989 7.70039 20.2989 9.30039 19.2989 10.2004C18.2989 11.1004 16.6989 11.2004 15.7989 10.2004C14.8989 9.20039 14.7989 7.60039 15.7989 6.70039C16.6989 5.80039 18.2989 5.80039 19.2989 6.70039" stroke="#878787" stroke-width="1.5" stroke-linecap="round" stroke-linejoin="round"/>
</svg>
