<svg width="24" height="24" viewBox="0 0 24 24" fill="none" xmlns="http://www.w3.org/2000/svg">
<ellipse cx="8.99469" cy="9.99909" rx="6.0025" ry="2.50104" stroke="#878787" stroke-width="1.5" stroke-linecap="round" stroke-linejoin="round"/>
<path d="M14.9972 13.501C14.9972 14.8823 12.3098 16.002 8.99469 16.002C5.6796 16.002 2.99219 14.8823 2.99219 13.501" stroke="#878787" stroke-width="1.5" stroke-linecap="round" stroke-linejoin="round"/>
<path d="M21.0025 9.99902C21.0025 11.3803 18.3151 12.5001 15 12.5001" stroke="#878787" stroke-width="1.5" stroke-linecap="round" stroke-linejoin="round"/>
<path d="M14.9972 9.99902V17.5021C14.9972 18.8834 12.3098 20.0032 8.99469 20.0032C5.6796 20.0032 2.99219 18.8834 2.99219 17.5021V9.99902" stroke="#878787" stroke-width="1.5" stroke-linecap="round" stroke-linejoin="round"/>
<path d="M21.0025 6.49805V14.0012C21.0025 15.3825 18.3151 16.5022 15 16.5022" stroke="#878787" stroke-width="1.5" stroke-linecap="round" stroke-linejoin="round"/>
<path d="M9.4924 7.50853C9.19541 7.2536 9.01484 6.88886 8.99219 6.49811C8.99219 5.11754 11.6833 3.99707 14.9947 3.99707C18.3061 3.99707 20.9972 5.11754 20.9972 6.49811C20.9972 7.87869 18.3061 8.99915 14.9947 8.99915C14.8246 8.99915 14.6545 8.99915 14.4945 8.98915" stroke="#878787" stroke-width="1.5" stroke-linecap="round" stroke-linejoin="round"/>
</svg>
