<svg width="32" height="32" viewBox="0 0 32 32" fill="none" xmlns="http://www.w3.org/2000/svg">
<path d="M18 25.333H6.66667C5.19391 25.333 4 24.1391 4 22.6663V10.6663C4 9.19358 5.19391 7.99967 6.66667 7.99967H10.1144C10.468 7.99967 10.8071 7.8592 11.0572 7.60915L12.5523 6.11407C13.0524 5.61397 13.7307 5.33301 14.4379 5.33301H17.5621C18.2693 5.33301 18.9476 5.61396 19.4477 6.11406L20.9428 7.60915C21.1929 7.8592 21.532 7.99967 21.8856 7.99967H25.3333C26.8061 7.99967 28 9.19358 28 10.6663V16.6663" stroke="#878787" stroke-width="1.5" stroke-linecap="round" stroke-linejoin="round"/>
<path d="M24.0663 11.9998C24.0663 12.0366 24.0364 12.0664 23.9996 12.0663C23.9628 12.0663 23.933 12.0365 23.933 11.9997C23.933 11.9629 23.9628 11.9331 23.9996 11.933C24.0173 11.933 24.0343 11.94 24.0468 11.9525C24.0593 11.9651 24.0664 11.982 24.0663 11.9998" stroke="#878787" stroke-width="1.5" stroke-linecap="round" stroke-linejoin="round"/>
<path d="M21.1443 14.6662C20.4989 12.1503 18.132 10.4677 15.5437 10.6848C12.9555 10.902 10.902 12.9555 10.6848 15.5437C10.4677 18.132 12.1503 20.4989 14.6662 21.1443" stroke="#878787" stroke-width="1.5" stroke-linecap="round" stroke-linejoin="round"/>
<path d="M22.667 23.9997H28.0003" stroke="#878787" stroke-width="1.5" stroke-linecap="round" stroke-linejoin="round"/>
<path d="M25.3337 26.6663V21.333" stroke="#878787" stroke-width="1.5" stroke-linecap="round" stroke-linejoin="round"/>
</svg>
