<svg width="50" height="50" viewBox="0 0 50 50" fill="none" xmlns="http://www.w3.org/2000/svg">
<path fill-rule="evenodd" clip-rule="evenodd" d="M30.1586 9.42768C33.0062 12.2753 33.0062 16.8921 30.1586 19.7397C27.311 22.5872 22.6942 22.5872 19.8466 19.7397C16.999 16.8921 16.999 12.2753 19.8466 9.42768C22.6942 6.5801 27.311 6.5801 30.1586 9.42768Z" fill="#B0B0B0"/>
<path d="M30.1586 9.42768C33.0062 12.2753 33.0062 16.8921 30.1586 19.7397C27.311 22.5872 22.6942 22.5872 19.8466 19.7397C16.999 16.8921 16.999 12.2753 19.8466 9.42768C22.6942 6.5801 27.311 6.5801 30.1586 9.42768" stroke="#B0B0B0" stroke-width="2" stroke-linecap="round" stroke-linejoin="round"/>
<path fill-rule="evenodd" clip-rule="evenodd" d="M8.33594 38.5416V40.6249C8.33594 41.7749 9.26927 42.7083 10.4193 42.7083H39.5859C40.7359 42.7083 41.6693 41.7749 41.6693 40.6249V38.5416C41.6693 32.2374 33.4359 28.1416 25.0026 28.1416C16.5693 28.1416 8.33594 32.2374 8.33594 38.5416Z" fill="#B0B0B0" stroke="#B0B0B0" stroke-width="2" stroke-linecap="round" stroke-linejoin="round"/>
</svg>
