<svg width="18" height="18" viewBox="0 0 18 18" fill="none" xmlns="http://www.w3.org/2000/svg">
<path fill-rule="evenodd" clip-rule="evenodd" d="M9 15.75C5.27175 15.75 2.25 12.7283 2.25 9C2.25 5.27175 5.27175 2.25 9 2.25C12.7283 2.25 15.75 5.27175 15.75 9C15.75 12.7283 12.7283 15.75 9 15.75Z" fill="#B0B0B0"/>
<path d="M9 9.93775V9.75025C9 9.1375 9.37875 8.80525 9.75825 8.55025C10.1287 8.3005 10.5 7.975 10.5 7.375C10.5 6.54625 9.82875 5.875 9 5.875C8.17125 5.875 7.5 6.54625 7.5 7.375" stroke="white" stroke-width="1.5" stroke-linecap="round" stroke-linejoin="round"/>
<path d="M8.99925 12C8.89575 12 8.81175 12.084 8.8125 12.1875C8.8125 12.291 8.8965 12.375 9 12.375C9.1035 12.375 9.1875 12.291 9.1875 12.1875C9.1875 12.084 9.1035 12 8.99925 12" stroke="white" stroke-width="1.5" stroke-linecap="round" stroke-linejoin="round"/>
</svg>
