<svg width="38" height="38" viewBox="0 0 38 38" fill="none" xmlns="http://www.w3.org/2000/svg">
<path d="M28.1241 29.9405L27.57 28.5488C27.2897 27.8426 26.8543 27.2093 26.297 26.6931L26.1956 26.5997C25.3185 25.7858 24.1658 25.333 22.9688 25.333H15.03C13.833 25.333 12.6803 25.7858 11.8015 26.5981L11.7002 26.6931C11.1429 27.2093 10.709 27.8426 10.4272 28.5488L9.87305 29.9405" stroke="#878787" stroke-width="1.5" stroke-linecap="round" stroke-linejoin="round"/>
<path d="M22.9192 11.7911C25.0834 13.9553 25.0834 17.464 22.9192 19.6282C20.755 21.7924 17.2463 21.7924 15.0821 19.6282C12.9179 17.464 12.9179 13.9553 15.0821 11.7911C17.2463 9.62693 20.755 9.62693 22.9192 11.7911" stroke="#878787" stroke-width="1.5" stroke-linecap="round" stroke-linejoin="round"/>
<path d="M29.0762 8.92373C34.6412 14.4887 34.6412 23.5113 29.0762 29.0762C23.5113 34.6412 14.4887 34.6412 8.92373 29.0762C3.35876 23.5113 3.35876 14.4887 8.92373 8.92373C14.4887 3.35876 23.5113 3.35876 29.0762 8.92373" stroke="#878787" stroke-width="1.5" stroke-linecap="round" stroke-linejoin="round"/>
</svg>
