<svg width="19" height="18" viewBox="0 0 19 18" fill="none" xmlns="http://www.w3.org/2000/svg">
<path fill-rule="evenodd" clip-rule="evenodd" d="M1.41612 1.2653C0.09375 2.5306 0.09375 4.56707 0.09375 8.64V9.36C0.09375 13.4329 0.09375 15.4694 1.41612 16.7347C2.73849 18 4.86681 18 9.12345 18H9.87593C14.1326 18 16.2609 18 17.5833 16.7347C18.9056 15.4694 18.9056 13.4329 18.9056 9.36V8.64C18.9056 4.56707 18.9056 2.5306 17.5833 1.2653C16.2609 0 14.1326 0 9.87593 0H9.12345C4.86681 0 2.73849 0 1.41612 1.2653ZM3.26829 5.47504C3.37018 10.155 5.8157 12.9675 10.1033 12.9675H10.3463V10.29C11.9218 10.44 13.1131 11.5425 13.5912 12.9675H15.8174C15.206 10.8375 13.5991 9.66002 12.5958 9.21002C13.5991 8.65503 15.01 7.30503 15.347 5.47504H13.3247C12.8857 6.96004 11.5847 8.31002 10.3463 8.43752V5.47504H8.32393V10.665C7.06982 10.365 5.48651 8.91004 5.41597 5.47504H3.26829Z" fill="white"/>
</svg>
