<svg width="24" height="24" viewBox="0 0 24 24" fill="none" xmlns="http://www.w3.org/2000/svg">
<path d="M18 13V19C18 20.105 17.105 21 16 21H5C3.895 21 3 20.105 3 19V8C3 6.895 3.895 6 5 6H9" stroke="#878787" stroke-width="1.5" stroke-linecap="round" stroke-linejoin="round"/>
<path fill-rule="evenodd" clip-rule="evenodd" d="M8 14.9998L11.15 14.6108C11.371 14.5838 11.577 14.4828 11.735 14.3258L19.366 6.69475C20.211 5.84975 20.211 4.47975 19.366 3.63375V3.63375C18.521 2.78875 17.151 2.78875 16.305 3.63375L8.745 11.1938C8.592 11.3468 8.493 11.5448 8.462 11.7598L8 14.9998Z" stroke="#878787" stroke-width="1.5" stroke-linecap="round" stroke-linejoin="round"/>
</svg>
