<svg width="33" height="32" viewBox="0 0 33 32" fill="none" xmlns="http://www.w3.org/2000/svg">
<path d="M12.3004 28.9069C12.7923 28.8418 13.2892 28.9752 13.681 29.277L15.4868 30.6626C16.0837 31.1211 16.914 31.1211 17.5093 30.6626L19.3834 29.2237C19.7335 28.9552 20.1754 28.8368 20.6122 28.8952L22.9565 29.2037C23.7019 29.302 24.4205 28.8869 24.7089 28.1916L25.611 26.0107C25.7794 25.6022 26.1029 25.2787 26.5114 25.1103L28.6923 24.2082C29.3876 23.9215 29.8027 23.2012 29.7044 22.4559L29.4076 20.1966C29.3425 19.7047 29.4759 19.2078 29.7777 18.816L31.1633 17.0102C31.6218 16.4133 31.6218 15.583 31.1633 14.9877L29.7244 13.1136C29.4559 12.7635 29.3375 12.3216 29.3959 11.8848L29.7044 9.54047C29.8027 8.79516 29.3876 8.07653 28.6923 7.78808L26.5114 6.88603C26.1029 6.71763 25.7794 6.39416 25.611 5.98566L24.7089 3.80475C24.4222 3.10946 23.7019 2.69429 22.9565 2.79266L20.6122 3.10113C20.1754 3.16115 19.7335 3.04277 19.3851 2.77599L17.5109 1.33706C16.914 0.878533 16.0837 0.878533 15.4884 1.33706L13.6143 2.77599C13.2642 3.04277 12.8223 3.16115 12.3855 3.10446L10.0412 2.796C9.29585 2.69762 8.57722 3.1128 8.28877 3.80809L7.38839 5.98899C7.21832 6.39583 6.89485 6.7193 6.48802 6.88937L4.30711 7.78974C3.61182 8.0782 3.19665 8.79683 3.29502 9.54214L3.60348 11.8864C3.66017 12.3233 3.54179 12.7651 3.27501 13.1136L1.83608 14.9877C1.37756 15.5847 1.37756 16.415 1.83608 17.0102L3.27501 18.8844C3.54346 19.2345 3.66184 19.6764 3.60348 20.1132L3.29502 22.4575C3.19665 23.2028 3.61182 23.9215 4.30711 24.2099L6.48802 25.112C6.89652 25.2804 7.21999 25.6038 7.38839 26.0123L8.29044 28.1932C8.57722 28.8885 9.29752 29.3037 10.0428 29.2053L12.3004 28.9069" stroke="#E53935" stroke-width="1.5" stroke-linecap="round" stroke-linejoin="round"/>
<path d="M21.1653 13.667L15.3279 19.5044L11.8281 16.003" stroke="#E53935" stroke-width="1.5" stroke-linecap="round" stroke-linejoin="round"/>
</svg>
