<svg width="18" height="18" viewBox="0 0 18 18" fill="none" xmlns="http://www.w3.org/2000/svg">
<ellipse cx="6.74797" cy="7.49883" rx="4.50187" ry="1.87578" stroke="#FDC524" stroke-width="1.5" stroke-linecap="round" stroke-linejoin="round"/>
<path d="M11.2498 10.125C11.2498 11.161 9.23429 12.0008 6.74797 12.0008C4.26165 12.0008 2.24609 11.161 2.24609 10.125" stroke="#FDC524" stroke-width="1.5" stroke-linecap="round" stroke-linejoin="round"/>
<path d="M15.7519 7.49902C15.7519 8.53499 13.7363 9.3748 11.25 9.3748" stroke="#FDC524" stroke-width="1.5" stroke-linecap="round" stroke-linejoin="round"/>
<path d="M11.2498 7.49902V13.1264C11.2498 14.1623 9.23429 15.0021 6.74797 15.0021C4.26165 15.0021 2.24609 14.1623 2.24609 13.1264V7.49902" stroke="#FDC524" stroke-width="1.5" stroke-linecap="round" stroke-linejoin="round"/>
<path d="M15.7519 4.87305V10.5004C15.7519 11.5364 13.7363 12.3762 11.25 12.3762" stroke="#FDC524" stroke-width="1.5" stroke-linecap="round" stroke-linejoin="round"/>
<path d="M7.12516 5.63067C6.90241 5.43946 6.76699 5.16591 6.75 4.87285C6.75 3.83742 8.76834 2.99707 11.2519 2.99707C13.7354 2.99707 15.7538 3.83742 15.7538 4.87285C15.7538 5.90828 13.7354 6.74863 11.2519 6.74863C11.1243 6.74863 10.9968 6.74863 10.8767 6.74113" stroke="#FDC524" stroke-width="1.5" stroke-linecap="round" stroke-linejoin="round"/>
</svg>
