<svg width="16" height="12" viewBox="0 0 16 12" fill="none" xmlns="http://www.w3.org/2000/svg">
<path d="M12.8386 7.44159C12.2392 7.80596 11.5507 7.9976 10.8493 7.99534C10.2616 7.99068 9.68056 7.87048 9.13926 7.64159C8.72208 8.23054 8.49881 8.93486 8.50051 9.65659V11.4997C8.50066 11.5683 8.48672 11.6361 8.45954 11.699C8.43237 11.762 8.39255 11.8186 8.34255 11.8655C8.29256 11.9124 8.23346 11.9485 8.16892 11.9716C8.10438 11.9947 8.03578 12.0043 7.96739 11.9997C7.83887 11.9885 7.71933 11.9292 7.63274 11.8335C7.54616 11.7379 7.49892 11.6131 7.50051 11.4841V10.7066L5.08676 8.29284C4.72795 8.4267 4.34847 8.49672 3.96551 8.49971C3.43831 8.50102 2.92097 8.35676 2.47051 8.08284C1.10864 7.25534 0.375512 5.35096 0.517387 2.98659C0.52453 2.86427 0.576341 2.74883 0.662983 2.66218C0.749625 2.57554 0.865065 2.52373 0.987386 2.51659C3.35176 2.37721 5.25614 3.10784 6.08114 4.46971C6.40527 5.00352 6.54678 5.62834 6.48426 6.24971C6.48037 6.29786 6.46263 6.34384 6.43316 6.38211C6.40369 6.42038 6.36377 6.4493 6.31822 6.46536C6.27267 6.48143 6.22345 6.48395 6.17649 6.47264C6.12954 6.46132 6.08686 6.43664 6.05364 6.40159L4.85364 5.14534C4.75911 5.05553 4.63323 5.0062 4.50285 5.00787C4.37247 5.00954 4.2479 5.06207 4.1557 5.15427C4.0635 5.24647 4.01096 5.37105 4.00929 5.50143C4.00762 5.63181 4.05695 5.75768 4.14676 5.85221L7.51426 9.30534C7.51801 9.25659 7.52239 9.20784 7.52739 9.15971C7.63673 8.23268 8.04579 7.36671 8.69239 6.69346L11.8543 3.35221C11.9481 3.25848 12.0008 3.13131 12.0009 2.99868C12.0009 2.86606 11.9483 2.73885 11.8546 2.64503C11.7608 2.5512 11.6337 2.49846 11.501 2.49841C11.3684 2.49835 11.2412 2.55098 11.1474 2.64471L8.08489 5.88346C8.05423 5.91593 8.01544 5.9396 7.97254 5.952C7.92965 5.96441 7.88421 5.96509 7.84096 5.95399C7.7977 5.94289 7.75821 5.92041 7.72659 5.88888C7.69497 5.85735 7.67237 5.81793 7.66114 5.77471C7.36489 4.68221 7.49551 3.59471 8.06114 2.66096C9.17739 0.818463 11.7749 -0.167787 15.0099 0.0222129C15.1322 0.0293563 15.2476 0.0811673 15.3343 0.167809C15.4209 0.254451 15.4727 0.369891 15.4799 0.492213C15.6674 3.72784 14.6811 6.32534 12.8386 7.44159Z" fill="white"/>
</svg>
