<svg width="18.000000" height="18.000000" viewBox="0 0 18 18" fill="none" xmlns="http://www.w3.org/2000/svg" xmlns:xlink="http://www.w3.org/1999/xlink">
	<desc>
			Created with Pixso.
	</desc>
	<defs/>
	<path id="Path" d="M8.64 11.67C8.86 11.56 9.13 11.56 9.35 11.67L10.15 12.09C10.41 12.23 10.72 12.21 10.96 12.04L11.26 11.82C11.5 11.65 11.61 11.36 11.57 11.07L11.41 10.18C11.36 9.93 11.45 9.68 11.63 9.5L12.28 8.87C12.49 8.67 12.56 8.37 12.47 8.09L12.35 7.74C12.27 7.46 12.03 7.26 11.74 7.22L10.85 7.09C10.6 7.05 10.38 6.9 10.27 6.67L9.87 5.86C9.74 5.6 9.47 5.43 9.18 5.43L8.82 5.43C8.52 5.43 8.25 5.6 8.13 5.86L7.73 6.67C7.61 6.9 7.4 7.05 7.15 7.09L6.25 7.22C5.97 7.26 5.73 7.46 5.64 7.74L5.53 8.09C5.43 8.37 5.51 8.67 5.72 8.87L6.36 9.5C6.54 9.68 6.63 9.93 6.59 10.18L6.43 11.07C6.39 11.36 6.5 11.65 6.74 11.82L7.03 12.04C7.27 12.21 7.58 12.23 7.84 12.09L8.64 11.67Z" stroke="#B0B0B0" stroke-opacity="1.000000" stroke-width="1.500000" stroke-linejoin="round"/>
	<path id="Path" d="M13.77 4.22C16.4 6.86 16.4 11.13 13.77 13.77C11.14 16.4 6.86 16.4 4.22 13.77C1.59 11.13 1.59 6.86 4.22 4.22C6.86 1.59 11.14 1.59 13.77 4.22Z" stroke="#B0B0B0" stroke-opacity="1.000000" stroke-width="1.500000" stroke-linejoin="round"/>
</svg>
