<svg width="66" height="20" viewBox="0 0 66 20" fill="none" xmlns="http://www.w3.org/2000/svg">
<g clip-path="url(#clip0_5202_6721)">
<path d="M62.9256 17.4154C64.2204 17.4154 65.1375 17.1701 65.8209 16.6418V14.2456C65.1196 14.755 64.2743 15.0758 63.0874 15.0758C61.0912 15.0758 60.264 13.4532 60.264 10.8871C60.264 8.18901 61.2711 6.81165 63.1054 6.81165C64.1844 6.81165 65.2454 7.20788 65.8029 7.58524V5.09467C65.2095 4.75505 64.1844 4.50977 62.7817 4.50977C59.2029 4.50977 57.3506 7.20788 57.3506 10.9815C57.3686 15.1135 59.185 17.4154 62.9256 17.4154ZM45.4275 16.3211V13.9249C44.5643 14.5475 43.0896 15.0947 41.7408 15.0947C39.6907 15.0947 38.9174 14.0758 38.7915 12.0003H45.5534V10.4532C45.5534 6.13241 43.737 4.50977 40.9495 4.50977C37.5326 4.50977 35.9141 7.24561 35.9141 11.0003C35.9141 15.3211 37.9463 17.4154 41.507 17.4154C43.2874 17.4154 44.6002 16.906 45.4275 16.3211ZM19.7648 4.73618V9.64184H16.0242V4.73618H13.2188V17.1701H16.0242V11.9815H19.7648V17.1701H22.5702V4.73618H19.7648ZM35.2128 14.8305H33.9719V4.73618H25.8073V5.79278C25.8073 8.83052 25.6275 12.755 24.6384 14.8305H23.7392V20.0003H26.3288V17.1701H32.6051V20.0003H35.1948V14.8305H35.2128ZM54.3653 17.1701H57.5484L53.0525 10.472L57.0089 4.73618H54.1855L50.2291 10.472V4.73618H47.4237V17.1701H50.2291V11.0569L54.3653 17.1701ZM40.8776 6.81165C42.2623 6.81165 42.694 8.0192 42.694 9.58524V9.83052H38.7915C38.8634 7.84939 39.5468 6.81165 40.8776 6.81165ZM31.1664 14.8305H27.21C27.9833 12.9626 28.1991 9.56637 28.1991 7.41543V7.03807H31.1664V14.8305Z" fill="black"/>
<path d="M10.8801 17.1698H8.02071V2.32075H6.74387C4.40599 2.32075 3.18311 3.54717 3.18311 5.37736C3.18311 7.45283 4.02834 8.41509 5.77275 9.64151L7.21144 10.6604L3.0752 17.1698H0L3.72262 11.3585C1.58256 9.75472 0.377657 8.18868 0.377657 5.54717C0.377657 2.24528 2.57166 0 6.72589 0H10.8621L10.8801 17.1698Z" fill="#FC3F1D"/>
</g>
<defs>
<clipPath id="clip0_5202_6721">
<rect width="66" height="20" fill="white"/>
</clipPath>
</defs>
</svg>
