<svg width="25" height="32" viewBox="0 0 25 32" fill="none" xmlns="http://www.w3.org/2000/svg">
<path d="M24.1654 19.333C24.1654 25.7763 18.942 30.9997 12.4987 30.9997C6.05536 30.9997 0.832031 25.7763 0.832031 19.333" stroke="#E53935" stroke-width="1.5" stroke-linecap="round" stroke-linejoin="round"/>
<path d="M24.1654 19.333C17.722 19.333 12.4987 24.5563 12.4987 30.9997C12.4987 24.5563 7.27536 19.333 0.832031 19.333" stroke="#E53935" stroke-width="1.5" stroke-linecap="round" stroke-linejoin="round"/>
<path fill-rule="evenodd" clip-rule="evenodd" d="M21.7583 8.40652V2.43319C21.7583 1.75319 20.9899 1.35986 20.4383 1.75652L18.1033 3.43819C17.5216 3.85652 16.7366 3.85652 16.1549 3.43819L12.9866 1.15652C12.6949 0.946523 12.3033 0.946523 12.0133 1.15652L8.84328 3.43819C8.26161 3.85652 7.47661 3.85652 6.89495 3.43819L4.55995 1.75652C4.00828 1.35986 3.23828 1.75319 3.23828 2.43319V8.40652C3.23828 13.5215 7.38495 17.6665 12.4983 17.6665C17.6116 17.6665 21.7583 13.5215 21.7583 8.40652Z" stroke="#E53935" stroke-width="1.5" stroke-linecap="round" stroke-linejoin="round"/>
</svg>
