<svg width="16" height="16" viewBox="0 0 16 16" fill="none" xmlns="http://www.w3.org/2000/svg">
<path fill-rule="evenodd" clip-rule="evenodd" d="M5.35983 5.119L7.54383 0.792C7.58578 0.704954 7.65132 0.631433 7.733 0.57981C7.81467 0.528186 7.90921 0.500533 8.00583 0.5C8.18883 0.5 8.37183 0.597 8.47083 0.792L10.6548 5.119L15.5528 5.815C15.6749 5.83419 15.7867 5.89491 15.8692 5.98691C15.9517 6.07891 16 6.19655 16.0058 6.32C16.0127 6.40217 16.0009 6.48483 15.9715 6.56186C15.9421 6.63889 15.8957 6.70831 15.8358 6.765L12.3128 10.121L13.1428 14.851C13.2208 15.294 12.7828 15.641 12.3968 15.443L8.00583 13.187L3.61683 15.443C3.57093 15.4669 3.52172 15.4837 3.47083 15.493C3.12983 15.553 2.80283 15.239 2.87083 14.851L3.70083 10.121L0.17883 6.765C0.124257 6.71311 0.0809206 6.65057 0.0515062 6.58125C0.0220918 6.51193 0.00722613 6.4373 0.0078302 6.362C0.00808689 6.2556 0.0371113 6.15125 0.0918302 6.06C0.131229 5.99407 0.184929 5.93783 0.248968 5.89542C0.313007 5.85302 0.38575 5.82554 0.46183 5.815L5.35983 5.119ZM8.00583 12.027C8.08583 12.027 8.16583 12.045 8.23783 12.083L11.9238 13.977L11.2298 10.02C11.2135 9.92891 11.2198 9.8352 11.2482 9.74713C11.2767 9.65906 11.3263 9.57934 11.3928 9.515L14.2988 6.745L10.2468 6.169C10.1629 6.15633 10.0833 6.12351 10.0149 6.07335C9.94645 6.02319 9.89119 5.95719 9.85383 5.881L8.00783 2.223L8.00583 2.226V12.026V12.027Z" fill="#FDC524"/>
</svg>
